<svg width="168" height="78" viewBox="0 0 168 78" fill="none" xmlns="http://www.w3.org/2000/svg">
    <path d="M100.003 26.7266V47.0769H96.5328V44.0071C95.7769 45.0419 94.8148 45.8697 93.6123 46.4561C92.4097 47.0424 91.0696 47.3184 89.6609 47.3184C86.9465 47.3184 84.8162 46.5596 83.27 45.0764C81.7239 43.5932 80.9336 41.3857 80.9336 38.4539V26.7611H84.6101V38.04C84.6101 40.006 85.0911 41.4892 86.0188 42.524C86.9465 43.5243 88.3209 44.0416 90.0732 44.0416C91.9974 44.0416 93.5435 43.4553 94.643 42.2825C95.7769 41.1098 96.3267 39.4542 96.3267 37.2812V26.7611H100.003V26.7266Z" fill="#262626"/>
    <path d="M124.57 18.5879V47.0439H121.065V43.8362C120.241 44.9744 119.21 45.8022 117.973 46.4231C116.736 47.0094 115.362 47.3199 113.85 47.3199C111.891 47.3199 110.139 46.8715 108.559 46.0092C107.012 45.1468 105.775 43.9051 104.917 42.353C104.023 40.7663 103.611 38.9728 103.611 36.9377C103.611 34.9027 104.058 33.0746 104.917 31.5224C105.81 29.9703 107.012 28.7631 108.559 27.8663C110.105 27.004 111.857 26.5556 113.85 26.5556C115.293 26.5556 116.633 26.8315 117.87 27.3834C119.107 27.9353 120.103 28.7286 120.928 29.8323V18.5879H124.57ZM117.63 43.1463C118.66 42.5599 119.485 41.6976 120.069 40.6284C120.653 39.5246 120.962 38.2829 120.962 36.9032C120.962 35.489 120.653 34.2473 120.069 33.1781C119.485 32.0743 118.66 31.2465 117.63 30.6601C116.599 30.0738 115.431 29.7633 114.159 29.7633C112.854 29.7633 111.685 30.0738 110.655 30.6601C109.624 31.2465 108.799 32.0743 108.215 33.1781C107.631 34.2818 107.322 35.5235 107.322 36.9032C107.322 38.3174 107.631 39.5591 108.215 40.6284C108.799 41.7321 109.624 42.5599 110.655 43.1463C111.685 43.7327 112.854 44.0431 114.159 44.0431C115.431 44.0431 116.599 43.7672 117.63 43.1463Z" fill="#262626"/>
    <path d="M130.067 22.1046C129.586 21.6562 129.345 21.0698 129.345 20.4145C129.345 19.7591 129.586 19.1727 130.067 18.7243C130.548 18.2414 131.132 18 131.853 18C132.575 18 133.159 18.2414 133.64 18.6554C134.121 19.1038 134.362 19.6556 134.362 20.311C134.362 21.0008 134.121 21.5872 133.64 22.0701C133.159 22.553 132.575 22.7944 131.853 22.7944C131.132 22.7944 130.548 22.5875 130.067 22.1046ZM129.998 26.7265H133.675V47.0769H129.998V26.7265Z" fill="#262626"/>
    <path d="M156.112 28.7594C157.624 30.2426 158.38 32.4501 158.38 35.3474V47.0403H154.704V35.7613C154.704 33.7953 154.223 32.3121 153.295 31.3118C152.367 30.3116 150.993 29.8287 149.24 29.8287C147.248 29.8287 145.701 30.415 144.533 31.5878C143.399 32.7605 142.815 34.4161 142.815 36.5891V47.0747H139.139V26.7244H142.643V29.7942C143.365 28.7594 144.396 27.9316 145.633 27.3797C146.904 26.8278 148.313 26.5519 149.928 26.5519C152.539 26.5174 154.566 27.2762 156.112 28.7594Z" fill="#262626"/>
    <path d="M163.705 22.1046C163.224 21.6562 162.984 21.0698 162.984 20.4145C162.984 19.7591 163.224 19.1727 163.705 18.7243C164.186 18.2414 164.771 18 165.492 18C166.214 18 166.798 18.2414 167.279 18.6554C167.76 19.1038 168 19.6556 168 20.311C168 21.0008 167.76 21.5872 167.279 22.0701C166.798 22.553 166.214 22.7944 165.492 22.7944C164.771 22.7944 164.186 22.5875 163.705 22.1046ZM163.637 26.7265H167.313V47.0769H163.637V26.7265Z" fill="#262626"/>
    <path d="M33.0652 51.186C27.0255 51.186 22.127 46.2686 22.127 40.2056C22.127 40.1497 22.127 40.0938 22.127 40.0379V40.01V26.3193H23.7969V40.2056C23.7969 45.3465 27.944 49.5096 33.0652 49.5096C38.1864 49.5096 42.3335 45.3465 42.3335 40.2056C42.3335 40.1217 42.3335 40.0379 42.3335 39.9541V26.3193H44.0034V39.9262C44.0034 40.01 44.0034 40.0938 44.0034 40.2056C44.0034 46.2406 39.1049 51.186 33.0652 51.186Z" fill="url(#paint0_linear_292_1320)"/>
    <path d="M33.0653 56.4392C24.6042 56.4392 17.7017 49.51 17.7017 41.0162C17.7017 40.9324 17.7017 40.8207 17.7017 40.7368V21.0391H19.3716V40.7648C19.3716 40.8765 19.3716 40.9604 19.3716 41.0442C19.3716 48.616 25.5226 54.7907 33.0653 54.7907C40.6079 54.7907 46.759 48.616 46.759 41.0162C46.759 40.9045 46.759 40.7648 46.759 40.653V21.0391H48.4289V40.6251C48.4289 40.7368 48.4289 40.8765 48.4289 41.0162C48.4289 49.538 41.5543 56.4392 33.0653 56.4392Z" fill="url(#paint1_linear_292_1320)"/>
    <path d="M33.0654 61.7197C22.155 61.7197 13.2764 52.8068 13.2764 41.8543C13.2764 41.7425 13.2764 41.6307 13.2764 41.519V41.491V15.7861H14.9463V41.5469C14.9463 41.6587 14.9463 41.7425 14.9463 41.8543C14.9463 51.8848 23.0735 60.0433 33.0654 60.0433C43.0573 60.0433 51.1845 51.8848 51.1845 41.8543C51.1845 41.6866 51.1845 41.519 51.1845 41.3513V15.7861H52.8544V41.3234C52.8544 41.491 52.8544 41.6587 52.8544 41.8543C52.8823 52.8068 44.0036 61.7197 33.0654 61.7197Z" fill="url(#paint2_linear_292_1320)"/>
    <path d="M33.065 67.0002C19.7053 67.0002 8.85059 56.1035 8.85059 42.6923C8.85059 42.5526 8.85059 42.4408 8.85059 42.3291V42.2732V10.5332H10.5205V42.357C10.5205 42.4688 10.5205 42.5805 10.5205 42.6923C10.5205 55.1815 20.6238 65.3238 33.065 65.3238C45.5062 65.3238 55.6095 55.1815 55.6095 42.6923C55.6095 42.4967 55.6095 42.2732 55.6095 42.0776V10.5332H57.2794V42.0497C57.2794 42.2452 57.2794 42.4688 57.2794 42.6923C57.3073 56.0756 46.4247 67.0002 33.065 67.0002Z" fill="url(#paint3_linear_292_1320)"/>
    <path d="M33.0651 72.2811C17.2562 72.2811 4.42529 59.3727 4.42529 43.5307C4.42529 43.363 4.42529 43.1954 4.42529 43.0557V43.0277V5.30859H6.09525V43.1116C6.09525 43.2513 6.09525 43.4189 6.09525 43.5586C6.09525 58.4786 18.2025 70.6326 33.0651 70.6326C47.9278 70.6326 60.035 58.4786 60.035 43.5586C60.035 43.3071 60.035 43.0557 60.035 42.8322V5.33653H61.7049V42.7483C61.7049 42.9998 61.7049 43.2513 61.7049 43.5027C61.7328 59.3727 48.8741 72.2811 33.0651 72.2811Z" fill="url(#paint4_linear_292_1320)"/>
    <path d="M33.0652 77.5338C14.8348 77.5338 0 62.6417 0 44.341C0 44.1733 0 43.9777 0 43.8101V43.7542V0H1.66996V43.838C1.66996 44.0057 1.66996 44.1733 1.66996 44.341C1.66996 61.7197 15.7533 75.8574 33.0652 75.8574C50.3771 75.8574 64.4605 61.7197 64.4605 44.341C64.4605 44.0616 64.4605 43.7542 64.4605 43.4748V0H66.1304V43.4469C66.1304 43.7263 66.1304 44.0336 66.1304 44.341C66.1582 62.6417 51.3234 77.5338 33.0652 77.5338Z" fill="url(#paint5_linear_292_1320)"/>
    <path d="M80.7617 59.67V54H83.2403C83.8559 54 84.3959 54.1188 84.8603 54.3564C85.3247 54.594 85.6865 54.9234 85.9457 55.3446C86.2049 55.7658 86.3345 56.2626 86.3345 56.835C86.3345 57.402 86.2049 57.8988 85.9457 58.3254C85.6865 58.7466 85.3247 59.076 84.8603 59.3136C84.3959 59.5512 83.8559 59.67 83.2403 59.67H80.7617ZM81.8147 58.779H83.1917C83.6183 58.779 83.9855 58.698 84.2933 58.536C84.6065 58.374 84.8468 58.1472 85.0142 57.8556C85.187 57.564 85.2734 57.2238 85.2734 56.835C85.2734 56.4408 85.187 56.1006 85.0142 55.8144C84.8468 55.5228 84.6065 55.296 84.2933 55.134C83.9855 54.972 83.6183 54.891 83.1917 54.891H81.8147V58.779Z" fill="#262626"/>
    <path d="M93.7717 56.3571H96.5905V57.2238H93.7717V56.3571ZM93.8527 58.7871H97.0522V59.67H92.7997V54H96.9388V54.8829H93.8527V58.7871Z" fill="#262626"/>
    <path d="M103.572 59.67V54H104.439L107.995 58.3659H107.565V54H108.61V59.67H107.744L104.188 55.3041H104.617V59.67H103.572Z" fill="#262626"/>
    <path d="M116.626 59.67V54.891H114.747V54H119.558V54.891H117.679V59.67H116.626Z" fill="#262626"/>
    <path d="M124.608 59.67L127.159 54H128.196L130.755 59.67H129.654L127.459 54.5589H127.88L125.693 59.67H124.608ZM125.782 58.3578L126.066 57.5316H129.127L129.411 58.3578H125.782Z" fill="#262626"/>
    <path d="M136.823 59.67V54H137.876V58.779H140.84V59.67H136.823Z" fill="#262626"/>
    <path d="M153.8 59.67L156.352 54H157.388L159.948 59.67H158.846L156.651 54.5589H157.073L154.886 59.67H153.8ZM154.975 58.3578L155.258 57.5316H158.32L158.603 58.3578H154.975Z" fill="#262626"/>
    <path d="M166.015 59.67V54H167.068V59.67H166.015Z" fill="#262626"/>
    <defs>
        <linearGradient id="paint0_linear_292_1320" x1="33.0694" y1="42.4696" x2="33.0694" y2="31.0682" gradientUnits="userSpaceOnUse">
            <stop stop-color="#FF2D55"/>
            <stop offset="1" stop-color="#28D4FF"/>
        </linearGradient>
        <linearGradient id="paint1_linear_292_1320" x1="33.0713" y1="44.0305" x2="33.0713" y2="27.7995" gradientUnits="userSpaceOnUse">
            <stop stop-color="#FF2D55"/>
            <stop offset="1" stop-color="#28D4FF"/>
        </linearGradient>
        <linearGradient id="paint2_linear_292_1320" x1="33.0731" y1="45.6187" x2="33.0731" y2="24.5581" gradientUnits="userSpaceOnUse">
            <stop stop-color="#FF2D55"/>
            <stop offset="1" stop-color="#28D4FF"/>
        </linearGradient>
        <linearGradient id="paint3_linear_292_1320" x1="33.0744" y1="47.2069" x2="33.0744" y2="21.3168" gradientUnits="userSpaceOnUse">
            <stop stop-color="#FF2D55"/>
            <stop offset="1" stop-color="#28D4FF"/>
        </linearGradient>
        <linearGradient id="paint4_linear_292_1320" x1="33.0763" y1="48.8054" x2="33.0763" y2="18.0984" gradientUnits="userSpaceOnUse">
            <stop stop-color="#FF2D55"/>
            <stop offset="1" stop-color="#28D4FF"/>
        </linearGradient>
        <linearGradient id="paint5_linear_292_1320" x1="33.0781" y1="50.3561" x2="33.0781" y2="14.8068" gradientUnits="userSpaceOnUse">
            <stop stop-color="#FF2D55"/>
            <stop offset="1" stop-color="#28D4FF"/>
        </linearGradient>
    </defs>
</svg>
